<svg width="117" height="33" viewBox="0 0 117 33" fill="none" xmlns="http://www.w3.org/2000/svg">
<g clip-path="url(#clip0_40_19)">
<path d="M15.3014 7.95149C15.3014 11.2103 12.5753 13.9004 9.15202 13.9004C5.72873 13.9004 3.00262 11.2103 3.00262 7.95149C3.00262 4.69271 5.72873 2.00262 9.15202 2.00262C12.5753 2.00262 15.3014 4.69271 15.3014 7.95149Z" fill="black" stroke="black" stroke-width="2.00524"/>
<circle cx="25" cy="8" r="7" fill="black"/>
<ellipse cx="9.15202" cy="24.9515" rx="7.15202" ry="6.95149" fill="black"/>
<rect x="3.49199" y="14" width="12.5634" height="1.90089" transform="rotate(15 3.49199 14)" fill="black"/>
<path d="M19.0199 11.0762L30.2867 30.9091L19.006 30.9067L19.0199 11.0762Z" fill="black" stroke="black" stroke-width="2"/>
</g>
<path d="M46.24 32.44C44.656 32.44 43.204 32.044 41.884 31.252C40.5933 30.4307 39.552 29.36 38.76 28.04C37.9973 26.6907 37.616 25.2093 37.616 23.596V21.572C37.616 21.4253 37.6893 21.352 37.836 21.352H42.764C42.8813 21.352 42.94 21.4253 42.94 21.572V23.596C42.94 24.564 43.2627 25.4 43.908 26.104C44.5533 26.7787 45.3307 27.116 46.24 27.116C47.1493 27.116 47.9267 26.764 48.572 26.06C49.2173 25.356 49.54 24.5347 49.54 23.596C49.54 22.5107 48.836 21.572 47.428 20.78C46.9587 20.516 46.2253 20.1053 45.228 19.548C44.2307 18.9907 43.292 18.4627 42.412 17.964C40.7987 17.0253 39.596 15.852 38.804 14.444C38.0413 13.0067 37.66 11.3933 37.66 9.604C37.66 7.96133 38.056 6.49467 38.848 5.204C39.64 3.884 40.6813 2.84267 41.972 2.08C43.292 1.31733 44.7147 0.935999 46.24 0.935999C47.7947 0.935999 49.2173 1.332 50.508 2.124C51.828 2.88666 52.8693 3.928 53.632 5.248C54.424 6.53867 54.82 7.99067 54.82 9.604V13.212C54.82 13.3293 54.7613 13.388 54.644 13.388H49.716C49.5987 13.388 49.54 13.3293 49.54 13.212L49.496 9.604C49.496 8.57733 49.1733 7.74133 48.528 7.096C47.8827 6.45067 47.12 6.128 46.24 6.128C45.3307 6.128 44.5533 6.48 43.908 7.184C43.2627 7.85867 42.94 8.66533 42.94 9.604C42.94 10.572 43.1453 11.3787 43.556 12.024C43.9667 12.6693 44.7147 13.2853 45.8 13.872C45.9467 13.96 46.2253 14.1213 46.636 14.356C47.076 14.5613 47.5453 14.8107 48.044 15.104C48.5427 15.368 48.9827 15.6027 49.364 15.808C49.7747 16.0133 50.024 16.1453 50.112 16.204C51.5787 17.0253 52.7373 18.0373 53.588 19.24C54.4387 20.4133 54.864 21.8653 54.864 23.596C54.864 25.268 54.468 26.7787 53.676 28.128C52.9133 29.448 51.872 30.504 50.552 31.296C49.2613 32.0587 47.824 32.44 46.24 32.44ZM66.0641 32.44C64.4801 32.44 63.0281 32.044 61.7081 31.252C60.4174 30.4307 59.3761 29.36 58.5841 28.04C57.7921 26.6907 57.3961 25.2093 57.3961 23.596L57.4401 9.648C57.4401 8.03467 57.8214 6.568 58.5841 5.248C59.3761 3.928 60.4321 2.872 61.7521 2.08C63.0721 1.288 64.5094 0.891999 66.0641 0.891999C67.6481 0.891999 69.0854 1.288 70.3761 2.08C71.6667 2.872 72.6934 3.928 73.4561 5.248C74.2481 6.568 74.6441 8.03467 74.6441 9.648L74.6881 23.596C74.6881 25.2093 74.2921 26.6907 73.5001 28.04C72.7374 29.36 71.6961 30.4307 70.3761 31.252C69.0854 32.044 67.6481 32.44 66.0641 32.44ZM66.0641 27.116C66.9441 27.116 67.7067 26.764 68.3521 26.06C69.0267 25.3267 69.3641 24.5053 69.3641 23.596L69.3201 9.648C69.3201 8.68 69.0121 7.85867 68.3961 7.184C67.7801 6.50933 67.0027 6.172 66.0641 6.172C65.1547 6.172 64.3774 6.50933 63.7321 7.184C63.0867 7.82933 62.7641 8.65066 62.7641 9.648V23.596C62.7641 24.564 63.0867 25.4 63.7321 26.104C64.3774 26.7787 65.1547 27.116 66.0641 27.116ZM86.3873 32.44C84.8326 32.44 83.3953 32.044 82.0753 31.252C80.7553 30.4307 79.6993 29.3453 78.9073 27.996C78.1446 26.6467 77.7633 25.1653 77.7633 23.552L77.8513 1.552C77.8513 1.43467 77.9099 1.376 78.0273 1.376H82.9553C83.0726 1.376 83.1313 1.43467 83.1313 1.552V23.552C83.1313 24.5493 83.4393 25.4 84.0553 26.104C84.7006 26.7787 85.4779 27.116 86.3873 27.116C87.3259 27.116 88.1033 26.7787 88.7193 26.104C89.3646 25.4 89.6873 24.5493 89.6873 23.552V1.552C89.6873 1.43467 89.7459 1.376 89.8633 1.376H94.7913C94.9086 1.376 94.9673 1.43467 94.9673 1.552L95.0553 23.552C95.0553 25.1947 94.6593 26.6907 93.8673 28.04C93.1046 29.3893 92.0633 30.46 90.7433 31.252C89.4526 32.044 88.0006 32.44 86.3873 32.44ZM98.7495 32C98.6029 32 98.5295 31.9267 98.5295 31.78L98.6175 1.552C98.6175 1.43467 98.6762 1.376 98.7935 1.376H107.242C109.94 1.376 112.067 2.19733 113.622 3.84C115.206 5.48266 115.998 7.712 115.998 10.528C115.998 12.6107 115.587 14.4147 114.766 15.94C113.944 17.4653 112.874 18.6387 111.554 19.46C110.234 20.2813 108.796 20.692 107.242 20.692H103.898V31.78C103.898 31.9267 103.824 32 103.678 32H98.7495ZM103.898 15.368H107.242C108.18 15.368 108.987 14.928 109.662 14.048C110.366 13.1387 110.718 11.9653 110.718 10.528C110.718 9.384 110.41 8.44533 109.794 7.712C109.178 6.97867 108.327 6.612 107.242 6.612L103.898 6.656V15.368Z" fill="black"/>
<defs>
<clipPath id="clip0_40_19">
<rect width="32" height="32" fill="white" transform="translate(0.189342 0.686501)"/>
</clipPath>
</defs>
</svg>
